<svg width="16" height="17" viewBox="0 0 16 17" fill="none" xmlns="http://www.w3.org/2000/svg">
<path fill-rule="evenodd" clip-rule="evenodd" d="M12.25 12.834L12.25 6.69375C12.25 6.53236 12.181 6.37973 12.0623 6.27891L11.6484 5.92707L8.58281 3.445C8.38731 3.28672 8.11269 3.28672 7.9172 3.445L4.85158 5.92708L4.43765 6.27891C4.31904 6.37973 4.25 6.53236 4.25 6.69375L4.25 12.834C4.25 13.1274 4.47386 13.3653 4.75 13.3653H6.25V10.709C6.25 9.82878 6.92157 9.11523 7.75 9.11523H8.75C9.57843 9.11523 10.25 9.82878 10.25 10.709V13.3653H11.75C12.0261 13.3653 12.25 13.1274 12.25 12.834ZM3.25 7.22379L3.25 12.834C3.25 13.7142 3.92157 14.4278 4.75 14.4278L11.75 14.4278C12.5784 14.4278 13.25 13.7142 13.25 12.834L13.25 7.22379L14.1272 7.93399C14.362 8.12415 14.7014 8.08133 14.8852 7.83835C15.069 7.59538 15.0276 7.24426 14.7928 7.05411L10.2077 3.34179L9.18704 2.47424C8.63921 2.00859 7.86079 2.00859 7.31296 2.47424L6.29231 3.34179L1.70722 7.05411C1.47236 7.24426 1.43097 7.59538 1.61477 7.83835C1.79857 8.08133 2.13797 8.12415 2.37283 7.93399L3.25 7.22379ZM8.75 10.1777H7.75C7.47386 10.1777 7.25 10.4156 7.25 10.709V13.3652H9.25V10.709C9.25 10.4156 9.02614 10.1777 8.75 10.1777Z" fill="#0000A0"/>
</svg>
