<svg width="112" height="46" viewBox="0 0 112 46" fill="none" xmlns="http://www.w3.org/2000/svg">
<path d="M56.5991 29.8415H58.3823V38H56.6806V32.5688L54.1165 36.5664L51.5641 32.5921V38H49.8625V29.8415H51.6923L54.1515 33.7226L56.5991 29.8415ZM65.0478 36.0769V37.6154C64.4884 37.9417 63.7425 38.1515 62.8334 38.1515C60.8637 38.1515 59.6516 36.8811 59.6516 35.0979C59.6516 33.373 60.8637 32.0909 62.577 32.0909C64.3369 32.0909 65.3975 33.303 65.3975 35.0863C65.3975 35.2611 65.3742 35.4592 65.3625 35.5991H61.3299C61.4581 36.2634 62.0525 36.7296 63.0199 36.7296C63.7075 36.7296 64.3602 36.5315 65.0478 36.0769ZM61.3066 34.4802H63.7658C63.7075 33.8392 63.2297 33.4079 62.5653 33.4079C61.901 33.4079 61.3882 33.8974 61.3066 34.4802ZM71.581 36.0769V37.6154C71.0216 37.9417 70.2757 38.1515 69.3666 38.1515C67.3969 38.1515 66.1847 36.8811 66.1847 35.0979C66.1847 33.373 67.3969 32.0909 69.1102 32.0909C70.8701 32.0909 71.9307 33.303 71.9307 35.0863C71.9307 35.2611 71.9074 35.4592 71.8957 35.5991H67.8631C67.9913 36.2634 68.5857 36.7296 69.553 36.7296C70.2407 36.7296 70.8934 36.5315 71.581 36.0769ZM67.8398 34.4802H70.299C70.2407 33.8392 69.7628 33.4079 69.0985 33.4079C68.4342 33.4079 67.9213 33.8974 67.8398 34.4802ZM73.3253 33.641H72.2764V33.4196L74.9687 30.6107H75.0153V32.2424H76.4722V33.641H75.0153V35.7506C75.0153 36.3683 75.2834 36.6131 75.8195 36.6131C76.0526 36.6131 76.2974 36.5315 76.4722 36.4033V37.8951C76.2041 38.035 75.7846 38.1399 75.2484 38.1399C74.0246 38.1399 73.3253 37.4406 73.3253 36.1585V33.641ZM83.0862 33.8741H84.9743L83.331 35.9021L85.4405 38H83.2144L82.282 37.0443C81.5711 37.7902 80.7203 38.1515 79.7879 38.1515C78.3193 38.1515 77.3053 37.2308 77.3053 35.9021C77.3053 34.9814 77.7832 34.2238 78.7855 33.5478C78.2261 32.965 77.9813 32.3939 77.9813 31.7646C77.9813 30.5874 78.9487 29.69 80.2774 29.69C81.5011 29.69 82.4102 30.5408 82.4102 31.683C82.4102 32.4056 82.0256 33.035 81.1515 33.7226L82.3053 34.8765L83.0862 33.8741ZM79.951 36.6597C80.4056 36.6597 80.8252 36.4266 81.2098 35.9837L79.7995 34.5618C79.3683 34.8532 78.972 35.2611 78.972 35.7739C78.972 36.2634 79.4032 36.6597 79.951 36.6597ZM79.5315 31.718C79.5315 32.0326 79.6946 32.324 80.1608 32.7669C80.7086 32.3706 80.9184 32.0443 80.9184 31.6946C80.9184 31.3217 80.627 31.0187 80.2191 31.0187C79.8461 31.0187 79.5315 31.3333 79.5315 31.718ZM93.0665 29.8415H94.8497V38H93.148V32.5688L90.5839 36.5664L88.0315 32.5921V38H86.3299V29.8415H88.1597L90.6189 33.7226L93.0665 29.8415ZM101.305 38H99.732L99.7087 37.2774C99.3707 37.8718 98.7064 38.1515 98.0187 38.1515C96.9465 38.1515 96.2122 37.4755 96.2122 36.4615C96.2122 35.4009 96.9232 34.7483 98.3567 34.5385L99.6621 34.352V34.2821C99.6621 33.8042 99.2775 33.5245 98.4966 33.5245C97.7507 33.5245 97.0863 33.8159 96.5619 34.2937V32.6737C97.063 32.3357 97.7856 32.0909 98.6714 32.0909C100.338 32.0909 101.305 32.8951 101.305 34.387V38ZM97.8206 36.3217C97.8323 36.648 98.1003 36.8578 98.4849 36.8578C99.1959 36.8578 99.6621 36.345 99.6621 35.6923V35.4942L98.6481 35.6573C98.1003 35.7389 97.8206 35.9837 97.8206 36.3217ZM106.376 32.1492V33.8974C106.283 33.8508 106.119 33.8275 105.945 33.8275C105.001 33.8275 104.441 34.5268 104.441 35.6573V38H102.751V32.2424H104.429V33.1865C104.732 32.5222 105.339 32.1142 106.084 32.1142C106.213 32.1142 106.341 32.1375 106.376 32.1492ZM107.151 37.627V35.8555C107.768 36.3566 108.584 36.718 109.342 36.718C109.831 36.718 110.088 36.5781 110.088 36.2751C110.088 35.3893 107.081 36.2168 107.081 34.0956C107.081 32.9184 107.967 32.0909 109.517 32.0909C110.239 32.0909 110.95 32.3007 111.486 32.5688V34.3054C110.915 33.7809 110.181 33.4895 109.458 33.4895C108.899 33.4895 108.712 33.6877 108.712 33.9208C108.712 34.7133 111.766 33.9907 111.766 36.1469C111.766 37.4406 110.694 38.1515 109.353 38.1515C108.433 38.1515 107.71 37.9417 107.151 37.627Z" fill="#0000A0"/>
<path d="M58.3965 14.9322L62.5923 8.17226H67.1145V24.4893H62.8487V15.072L58.3266 21.9018L53.8044 15.072V24.4893H49.5387V8.17226H54.1541L58.3965 14.9322Z" fill="#0000A0"/>
<path d="M88.5204 19.0232V25H84.4694V13.9319H88.5204V15.238C89.0959 14.2861 90.1142 13.622 91.5309 13.622C92.9697 13.622 94.0323 14.2861 94.6299 15.3929C95.4047 14.109 96.755 13.622 98.0832 13.622C100.585 13.622 101.935 15.2822 101.935 17.8722V25H97.884V18.979C97.884 17.9164 97.397 17.3188 96.5779 17.3188C95.7589 17.3188 95.2276 17.9386 95.2276 19.0232V25H91.1767V18.979C91.1767 17.9164 90.6897 17.3188 89.8707 17.3188C89.0516 17.3188 88.5204 17.9386 88.5204 19.0232Z" fill="#00DCFA"/>
<path d="M22.082 20.8401L33.8384 9.08171C34.1905 8.72924 34.5485 8.48145 35.1056 8.48145V37.5184H29.0663V23.6349L22.082 30.6153V20.8401H22.082Z" fill="#00D7B9"/>
<path d="M22.0822 30.6153L15.0979 23.6347V37.5184H9.05859V8.48145C9.61584 8.48145 9.97398 8.72924 10.3259 9.08171L22.0822 20.8401V30.6153H22.0822Z" fill="#0000A0"/>
<mask id="path-6-outside-1_4740_3229" maskUnits="userSpaceOnUse" x="63.666" y="4.48926" width="24" height="24" fill="black">
<rect fill="white" x="63.666" y="4.48926" width="24" height="24"/>
<path d="M78.7173 16.2375H83.356L79.9993 20.2002L84.2651 24.4893H78.8338L77.3886 22.9741C76.1532 24.1862 74.4749 24.8156 72.7732 24.8156C69.6264 24.8156 67.4819 22.9275 67.4819 20.1303C67.4819 18.3587 68.4143 16.8669 70.1625 15.6548C69.1602 14.5825 68.694 13.4636 68.694 12.2049C68.694 9.73403 70.7686 7.84592 73.659 7.84592C76.293 7.84592 78.1578 9.61748 78.1578 12.0417C78.1578 13.3937 77.4352 14.6991 75.8735 16.0044L77.5285 17.6827L78.7173 16.2375ZM73.1229 21.2025C73.7756 21.2025 74.335 20.8762 74.8012 20.3634L72.5868 18.1023C71.9341 18.5918 71.5844 19.1746 71.5844 19.7806C71.5844 20.5732 72.2371 21.2025 73.1229 21.2025ZM72.4702 12.0883C72.4702 12.5778 72.7033 12.9741 73.4725 13.72C74.2884 13.0907 74.5448 12.6012 74.5448 12.065C74.5448 11.4823 74.1252 11.0627 73.4958 11.0627C72.9364 11.0627 72.4702 11.5289 72.4702 12.0883Z"/>
</mask>
<path d="M78.7173 16.2375H83.356L79.9993 20.2002L84.2651 24.4893H78.8338L77.3886 22.9741C76.1532 24.1862 74.4749 24.8156 72.7732 24.8156C69.6264 24.8156 67.4819 22.9275 67.4819 20.1303C67.4819 18.3587 68.4143 16.8669 70.1625 15.6548C69.1602 14.5825 68.694 13.4636 68.694 12.2049C68.694 9.73403 70.7686 7.84592 73.659 7.84592C76.293 7.84592 78.1578 9.61748 78.1578 12.0417C78.1578 13.3937 77.4352 14.6991 75.8735 16.0044L77.5285 17.6827L78.7173 16.2375ZM73.1229 21.2025C73.7756 21.2025 74.335 20.8762 74.8012 20.3634L72.5868 18.1023C71.9341 18.5918 71.5844 19.1746 71.5844 19.7806C71.5844 20.5732 72.2371 21.2025 73.1229 21.2025ZM72.4702 12.0883C72.4702 12.5778 72.7033 12.9741 73.4725 13.72C74.2884 13.0907 74.5448 12.6012 74.5448 12.065C74.5448 11.4823 74.1252 11.0627 73.4958 11.0627C72.9364 11.0627 72.4702 11.5289 72.4702 12.0883Z" fill="#00D7B9"/>
<path d="M78.7173 16.2375V13.2275C77.8173 13.2275 76.9645 13.6303 76.3927 14.3254L78.7173 16.2375ZM83.356 16.2375L85.6527 18.183C86.4105 17.2885 86.5799 16.0354 86.0869 14.9718C85.5939 13.9082 84.5283 13.2275 83.356 13.2275V16.2375ZM79.9993 20.2002L77.7026 18.2547C76.6924 19.4473 76.763 21.2146 77.8652 22.3228L79.9993 20.2002ZM84.2651 24.4893V27.4993C85.481 27.4993 86.5775 26.7677 87.0444 25.6449C87.5112 24.5222 87.2567 23.2288 86.3992 22.3667L84.2651 24.4893ZM78.8338 24.4893L76.6558 26.5668C77.2238 27.1623 78.0109 27.4993 78.8338 27.4993V24.4893ZM77.3886 22.9741L79.5667 20.8966C79.0106 20.3136 78.244 19.9779 77.4385 19.9645C76.6329 19.9512 75.8557 20.2613 75.2806 20.8255L77.3886 22.9741ZM70.1625 15.6548L71.8776 18.1284C72.5962 17.6301 73.0626 16.844 73.1555 15.9745C73.2484 15.105 72.9585 14.2381 72.3614 13.5993L70.1625 15.6548ZM75.8735 16.0044L73.9431 13.6949C73.2976 14.2344 72.9074 15.0194 72.8669 15.8597C72.8265 16.7 73.1396 17.5189 73.7302 18.1179L75.8735 16.0044ZM77.5285 17.6827L75.3853 19.7962C75.984 20.4033 76.8121 20.7281 77.6639 20.6897C78.5158 20.6513 79.3114 20.2534 79.8531 19.5949L77.5285 17.6827ZM74.8012 20.3634L77.0284 22.3881C78.1011 21.2082 78.0674 19.3965 76.9517 18.2573L74.8012 20.3634ZM72.5868 18.1023L74.7372 15.9962C73.6808 14.9175 71.9886 14.7884 70.7808 15.6943L72.5868 18.1023ZM73.4725 13.72L71.3771 15.8809C72.451 16.9223 74.1267 17.017 75.3111 16.1033L73.4725 13.72ZM78.7173 19.2475H83.356V13.2275H78.7173V19.2475ZM81.0592 14.292L77.7026 18.2547L82.2961 22.1457L85.6527 18.183L81.0592 14.292ZM77.8652 22.3228L82.1309 26.6118L86.3992 22.3667L82.1335 18.0776L77.8652 22.3228ZM84.2651 21.4793H78.8338V27.4993H84.2651V21.4793ZM81.0119 22.4117L79.5667 20.8966L75.2106 25.0516L76.6558 26.5668L81.0119 22.4117ZM75.2806 20.8255C74.65 21.4442 73.7475 21.8056 72.7732 21.8056V27.8256C75.2023 27.8256 77.6564 26.9282 79.4966 25.1227L75.2806 20.8255ZM72.7732 21.8056C71.7931 21.8056 71.2231 21.5161 70.9411 21.2667C70.6906 21.0453 70.4919 20.7109 70.4919 20.1303H64.4719C64.4719 22.3469 65.3454 24.3551 66.9539 25.777C68.5308 27.1711 70.6066 27.8256 72.7732 27.8256V21.8056ZM70.4919 20.1303C70.4919 19.6104 70.6954 18.948 71.8776 18.1284L68.4475 13.1812C66.1331 14.7858 64.4719 17.1071 64.4719 20.1303H70.4919ZM72.3614 13.5993C71.8051 13.0042 71.704 12.5971 71.704 12.2049H65.684C65.684 14.3302 66.5152 16.1608 67.9636 17.7102L72.3614 13.5993ZM71.704 12.2049C71.704 11.8569 71.8339 11.5778 72.0905 11.3502C72.3619 11.1093 72.8691 10.8559 73.659 10.8559V4.83592C69.4542 4.83592 65.684 7.74377 65.684 12.2049H71.704ZM73.659 10.8559C74.2937 10.8559 74.6571 11.0615 74.8373 11.2304C75.0068 11.3893 75.1478 11.6349 75.1478 12.0417H81.1678C81.1678 7.77573 77.7702 4.83592 73.659 4.83592V10.8559ZM75.1478 12.0417C75.1478 12.1732 75.121 12.7104 73.9431 13.6949L77.8038 18.3139C79.7494 16.6877 81.1678 14.6142 81.1678 12.0417H75.1478ZM73.7302 18.1179L75.3853 19.7962L79.6717 15.5693L78.0167 13.891L73.7302 18.1179ZM79.8531 19.5949L81.0419 18.1497L76.3927 14.3254L75.2039 15.7706L79.8531 19.5949ZM73.1229 24.2125C74.8828 24.2125 76.1932 23.3069 77.0284 22.3881L72.574 18.3386C72.5252 18.3923 72.5419 18.3575 72.6416 18.3057C72.756 18.246 72.927 18.1925 73.1229 18.1925V24.2125ZM76.9517 18.2573L74.7372 15.9962L70.4363 20.2084L72.6508 22.4695L76.9517 18.2573ZM70.7808 15.6943C69.6603 16.5346 68.5744 17.9152 68.5744 19.7806H74.5944C74.5944 20.0786 74.5036 20.3097 74.4242 20.4425C74.3532 20.5613 74.3112 20.5715 74.3928 20.5103L70.7808 15.6943ZM68.5744 19.7806C68.5744 22.4195 70.7648 24.2125 73.1229 24.2125V18.1925C73.4033 18.1925 73.7658 18.2986 74.0786 18.5914C74.395 18.8877 74.5944 19.3204 74.5944 19.7806H68.5744ZM69.4602 12.0883C69.4602 13.9188 70.5603 15.0888 71.3771 15.8809L75.5679 11.5592C75.4125 11.4084 75.3187 11.3085 75.2638 11.2454C75.2085 11.1817 75.2184 11.1845 75.2535 11.2421C75.2936 11.3079 75.3599 11.4341 75.4111 11.6121C75.4637 11.7946 75.4802 11.9613 75.4802 12.0883H69.4602ZM75.3111 16.1033C76.4854 15.1974 77.5548 13.9275 77.5548 12.065H71.5348C71.5348 11.9532 71.549 11.8082 71.5939 11.6482C71.6388 11.4883 71.7009 11.3611 71.7559 11.2723C71.8514 11.1182 71.8875 11.1413 71.634 11.3368L75.3111 16.1033ZM77.5548 12.065C77.5548 11.0278 77.1673 9.97409 76.3501 9.18289C75.5373 8.39585 74.4922 8.0527 73.4958 8.0527V14.0727C73.1289 14.0727 72.6083 13.9393 72.1625 13.5078C71.7125 13.0721 71.5348 12.5195 71.5348 12.065H77.5548ZM73.4958 8.0527C71.274 8.0527 69.4602 9.86652 69.4602 12.0883H75.4802C75.4802 13.1913 74.5988 14.0727 73.4958 14.0727V8.0527Z" fill="white" mask="url(#path-6-outside-1_4740_3229)"/>
</svg>
